<?xml version="1.0" encoding="iso-8859-1"?>
<!-- Generator: Adobe Illustrator 16.0.0, SVG Export Plug-In . SVG Version: 6.00 Build 0)  -->
<!DOCTYPE svg PUBLIC "-//W3C//DTD SVG 1.1//EN" "http://www.w3.org/Graphics/SVG/1.1/DTD/svg11.dtd">
<svg version="1.1" id="Capa_1" xmlns="http://www.w3.org/2000/svg" xmlns:xlink="http://www.w3.org/1999/xlink" x="0px" y="0px"
	 width="582.195px" height="582.195px" viewBox="0 0 582.195 582.195" style="enable-background:new 0 0 582.195 582.195;"
	 xml:space="preserve">
<g>
	<g>
		<path d="M98.07,391.891c2.57,2.57,4.651,1.708,4.651-1.928v-28.194c0-3.633,2.947-6.579,6.579-6.579h363.596
			c3.632,0,6.579,2.946,6.579,6.579v28.194c0,3.633,2.084,4.495,4.65,1.928l96.143-96.142c2.57-2.57,2.57-6.735,0-9.303
			l-96.143-96.142c-2.57-2.57-4.65-1.708-4.65,1.928v28.194c0,3.632-2.947,6.579-6.579,6.579H109.3
			c-3.632,0-6.579-2.947-6.579-6.579v-28.194c0-3.632-2.084-4.496-4.651-1.928L1.928,286.446c-2.57,2.57-2.57,6.735,0,9.303
			L98.07,391.891z"/>
	</g>
</g>
<g>
</g>
<g>
</g>
<g>
</g>
<g>
</g>
<g>
</g>
<g>
</g>
<g>
</g>
<g>
</g>
<g>
</g>
<g>
</g>
<g>
</g>
<g>
</g>
<g>
</g>
<g>
</g>
<g>
</g>
</svg>
